<svg xmlns="http://www.w3.org/2000/svg" xmlns:xlink="http://www.w3.org/1999/xlink" version="1.1" id="Your_Icon" x="0px" y="0px" width="100px" height="100px" viewBox="0 0 100 100" enable-background="new 0 0 100 100" xml:space="preserve">
<ellipse cx="57.865" cy="41.533" rx="3.386" ry="3.197"/>
<ellipse cx="46.83" cy="41.533" rx="3.386" ry="3.197"/>
<path d="M77.744,36.006c-0.368-1.735-0.904-3.398-1.582-4.979c-0.829,0.375-1.643,0.622-2.393,0.787  c0.801,1.823,1.391,3.769,1.729,5.817l0.238,1.453l1.396-0.467c0.205-0.068,0.409-0.104,0.605-0.104c1.887,0,3.541,2.93,3.541,6.27  s-1.654,6.27-3.541,6.27c-0.566,0-1.123-0.264-1.656-0.784l-1.333-1.308l-0.705,1.729c-3.724,9.134-12.498,15.034-22.354,15.034  c-6.353,0-12.166-2.454-16.496-6.502l3.26-1.902c0.266-0.154,0.488-0.348,0.676-0.562c0.287,0.436,0.622,0.865,1.031,1.272  c1.681,1.671,4.06,2.589,7.097,2.74c0.831,0.043,1.71,0.026,2.639-0.047c0.701-0.056,1.223-0.669,1.168-1.367  c-0.058-0.7-0.674-1.222-1.367-1.167c-3.532,0.279-6.129-0.373-7.721-1.939c-1.894-1.865-1.761-4.513-1.757-4.563  c0.048-0.697-0.477-1.304-1.174-1.354c-0.009,0-0.02-0.002-0.031-0.002c-0.687-0.035-1.279,0.486-1.329,1.176  c-0.005,0.066-0.054,0.826,0.129,1.883c-0.475-0.023-0.979,0.087-1.443,0.357l-3.999,2.33c-2.513-3.349-4.184-7.389-4.67-11.824  l-0.133-1.213l-1.216,0.1l-0.149,0.017c-1.987,0-3.73-3.149-3.73-6.739s1.743-6.74,3.73-6.74c0.855,0,1.544,0.592,1.971,1.089  l1.211,1.41l0.854-1.651c0.977-1.891,2.179-3.61,3.559-5.139c-0.474-0.862-0.833-1.7-1.097-2.494  c-1.484,1.513-2.803,3.213-3.913,5.083c-0.8-0.531-1.673-0.807-2.584-0.807c-3.498,0-6.238,4.062-6.238,9.249  c0,4.752,2.302,8.562,5.38,9.164c0.656,4.383,2.364,8.387,4.844,11.771l-4.785,2.788c-1.14,0.664-1.598,2.005-1.022,2.992  c0.576,0.986,1.966,1.248,3.106,0.582l5.452-3.178c4.832,4.778,11.469,7.697,18.75,7.697c10.354,0,19.627-5.898,24.041-15.156  c0.64,0.32,1.315,0.484,2.009,0.484c3.394,0,6.05-3.854,6.05-8.776C83.788,39.864,81.134,36.01,77.744,36.006z"/>
<path d="M81.141,17.568C79.443,12.807,70.309,6.743,60.346,3.763c-2.197-0.657-4.418-0.977-6.789-0.977  c-2.971,0-6.017,0.5-8.863,1.04l-0.121,0.024l-0.442-0.003c-5.655,0-9.379,1.294-10.768,3.742c-2.01,3.542,1.033,8.714,1.064,8.766  l0.253,0.425l-0.104,0.485c-0.028,0.137-0.302,1.618,0.191,3.728c0.18,0.771,0.464,1.627,0.9,2.531  c1.198,2.489,3.545,5.352,8.085,7.871c2.885,1.601,6.25,2.413,10.001,2.413c8.091,0,15.319-3.79,15.392-3.828l0.045-0.023  c0.418-0.201,0.906-0.235,1.643-0.287c0.499-0.035,1.104-0.078,1.768-0.184c0.767-0.123,1.613-0.333,2.471-0.715  c2.246-0.999,4.562-3.185,5.709-8.135l0.054-0.227l0.131-0.192C81.458,19.488,81.516,18.623,81.141,17.568z"/>
<path d="M83.076,72.979c-3.789-3.493-9.69-3.255-13.184,0.532c-0.795,0.863-1.396,1.834-1.806,2.863L49.57,79.502l-6.215,1.049  l-0.025-0.098l-1.463-5.701c-0.469-1.826-1.907-3.226-3.753-3.652c-0.375-0.088-0.76-0.133-1.143-0.133  c-0.417,0-0.835,0.054-1.243,0.156c-1.043,0.264-1.953,0.844-2.622,1.635c-0.296-0.053-0.596-0.08-0.895-0.08  c-0.417,0-0.834,0.054-1.241,0.154c-1.313,0.328-2.419,1.149-3.111,2.311c-0.318,0.531-0.53,1.107-0.634,1.701  c-0.322,0.019-0.643,0.066-0.957,0.146c-0.077,0.021-0.154,0.042-0.23,0.063l-0.142-0.551c-0.47-1.826-1.909-3.226-3.753-3.652  c-0.375-0.086-0.76-0.131-1.143-0.131c-0.417,0-0.835,0.053-1.242,0.154c-1.314,0.328-2.42,1.149-3.111,2.311  c-0.687,1.152-0.882,2.502-0.55,3.801l1.513,5.895c0.044,0.168,0.1,0.332,0.162,0.496l-0.492,0.092  c-1.139,0.216-1.761,1.994-1.387,3.975l0.451,2.385c0.373,1.979,1.6,3.41,2.74,3.195l5.668-1.07l0.34,1.225  C25.726,97.463,28.065,99,30.911,99l0,0c0.729,0,1.463-0.102,2.184-0.301l6.064-1.683c3.405-0.944,5.658-3.91,5.129-6.753v-0.002  l0.371-0.069l25.055-4.229c0.222,0.254,0.458,0.5,0.711,0.732c3.789,3.493,9.69,3.254,13.185-0.533S86.865,76.473,83.076,72.979z   M20.276,74.933c0.242-0.062,0.485-0.091,0.724-0.091c0.226,0,0.448,0.025,0.664,0.076c1.032,0.239,1.897,1.024,2.177,2.111  l0.958,3.73c0.341-0.819,1.054-1.479,1.99-1.713c0.241-0.061,0.483-0.09,0.721-0.09c0.226,0,0.448,0.025,0.663,0.075  c0.629,0.146,1.197,0.497,1.608,0.993l-0.414-1.609c-0.397-1.555,0.551-3.134,2.123-3.525c0.242-0.062,0.484-0.09,0.722-0.09  c0.225,0,0.446,0.024,0.66,0.074c0.448,0.104,0.863,0.311,1.214,0.6c0.2-1.083,1.014-2.006,2.162-2.295  c0.243-0.061,0.486-0.09,0.725-0.09c0.226,0,0.448,0.025,0.664,0.076c1.031,0.238,1.897,1.023,2.177,2.111l1.464,5.708l0.048,0.185  c0.399,1.555-0.55,3.133-2.121,3.526c-0.241,0.06-0.482,0.089-0.72,0.089c-0.226,0-0.448-0.025-0.663-0.074  c-0.448-0.104-0.864-0.312-1.215-0.6c-0.2,1.082-1.013,2.004-2.162,2.294c-0.242,0.062-0.483,0.09-0.721,0.09  c-0.226,0-0.448-0.026-0.663-0.075c-0.629-0.146-1.197-0.496-1.609-0.992l0.414,1.607c0.399,1.555-0.551,3.135-2.121,3.528  c-0.241,0.062-0.484,0.091-0.723,0.091c-0.227,0-0.449-0.025-0.665-0.077c-1.033-0.239-1.898-1.024-2.178-2.112l-0.957-3.729  c-0.341,0.819-1.053,1.479-1.99,1.713c-0.242,0.062-0.485,0.091-0.725,0.091c-0.226,0-0.448-0.025-0.663-0.076  c-0.821-0.188-1.53-0.729-1.929-1.487c-0.103-0.195-0.19-0.401-0.249-0.625l-1.512-5.892C17.757,76.905,18.706,75.326,20.276,74.933  z M38.757,95.566l-6.064,1.684c-0.59,0.164-1.189,0.244-1.781,0.244l0,0c-2.162,0-3.918-1.093-4.37-2.721l-0.104-0.375l16.418-3.1  C42.753,93.135,41.095,94.92,38.757,95.566z M81.714,83.92l-6.125,1.91l-4.716-4.351l1.408-6.259l6.125-1.91l4.716,4.351  L81.714,83.92z"/>
</svg>